<?xml version="1.0" encoding="UTF-8"?>
<svg width="184px" height="416px" viewBox="0 0 184 416" version="1.1" xmlns="http://www.w3.org/2000/svg" xmlns:xlink="http://www.w3.org/1999/xlink">
    <title>Screen Shot 2022-02-08 at 6.30.07 pm</title>
    <g id="Page-1" stroke="none" stroke-width="1" fill="none" fill-rule="evenodd" fill-opacity="0.3">
        <path d="M134.804883,277.827923 L134.841552,277.864593 L134.841552,277.864593 C140.370098,283.413487 140.370098,292.38846 134.841552,297.937355 L102.115665,330.783692 C99.3160752,333.593586 95.6272115,334.978062 91.9513275,334.935463 C88.3380434,334.943915 84.7215676,333.572432 81.9593677,330.820361 C81.9471222,330.808161 81.934899,330.795938 81.9226984,330.783692 L49.1968113,297.937355 C47.3423521,296.07607 46.106046,293.845763 45.4878929,291.492449 C44.8697398,289.139134 44.8697398,286.662813 45.4878929,284.309499 C46.106046,281.956184 47.3423521,279.725877 49.1968113,277.864593 C54.6991731,272.341979 63.6366815,272.325562 69.1592952,277.827923 C69.1715408,277.840124 69.1837639,277.852347 69.1959645,277.864593 L92.019,300.771142 L114.842399,277.864593 C120.34476,272.341979 129.282269,272.325562 134.804883,277.827923 Z" id="Combined-Shape" fill="#FFFFFF"></path>
        <path d="M88.3124661,142.306375 C85.9611382,141.692359 83.7368971,140.464326 81.8939163,138.622278 L49.1363636,105.868311 C43.6927621,100.427462 43.6085388,91.6559141 48.8830071,86.1109592 L49.1341726,85.8534277 C49.1345378,85.8530625 49.1349029,85.8526973 49.1363636,85.8534277 C50.9798921,84.0108312 53.2041332,82.7827988 55.5554611,82.1687826 C57.906789,81.5547664 60.3852036,81.5547664 62.7365315,82.1687826 C65.0878594,82.7827988 67.3121005,84.0108312 69.1550813,85.8528798 L91.999,108.694772 L114.844919,85.8528799 C120.372961,80.3254429 129.335046,80.3254429 134.863089,85.8528799 C140.390348,91.3795347 140.390839,100.340503 134.864184,105.867763 C134.863819,105.868128 134.863454,105.868493 134.863089,105.868858 L102.106084,138.622278 C99.3845859,141.343478 95.8307899,142.72501 92.2641893,142.766874 L91.9030013,142.766887 C90.6955657,142.766887 89.48813,142.613383 88.3124661,142.306375 Z" id="Combined-Shape" fill="#FFFFFF" transform="translate(92.000000, 112.237579) scale(1, -1) translate(-92.000000, -112.237579) "></path>
        <path d="M42,198 L142,198 C147.522847,198 152,202.477153 152,208 C152,213.522847 147.522847,218 142,218 L42,218 C36.4771525,218 32,213.522847 32,208 C32,202.477153 36.4771525,198 42,198 Z" id="Rectangle" fill="#FFFFFF"></path>
    </g>
</svg>