<?xml version="1.0" encoding="UTF-8"?>
<svg width="50px" height="50px" viewBox="0 0 50 50" version="1.1" xmlns="http://www.w3.org/2000/svg" xmlns:xlink="http://www.w3.org/1999/xlink">
    <title>Combined Shape</title>
    <g id="Page-1" stroke="none" stroke-width="1" fill="none" fill-rule="evenodd" fill-opacity="0.303585453">
        <path d="M25,0 C28.3137085,0 31,2.6862915 31,6 L30.999,19 L44,19 C47.3137085,19 50,21.6862915 50,25 C50,28.3137085 47.3137085,31 44,31 L30.999,31 L31,44 C31,47.3137085 28.3137085,50 25,50 C21.6862915,50 19,47.3137085 19,44 L18.999,31 L6,31 C2.6862915,31 4.05812251e-16,28.3137085 0,25 C-4.05812251e-16,21.6862915 2.6862915,19 6,19 L18.999,19 L19,6 C19,2.6862915 21.6862915,0 25,0 Z" id="Combined-Shape" fill="#FFFFFF"></path>
    </g>
</svg>